<svg viewBox="0 0 283.46 283.46" xmlns="http://www.w3.org/2000/svg"><path d="m63.39 178.79h-.1c-.07 0-.11.04-.11.11-.12 2.09-.33 4.06-.65 5.9-.14.84-.56 1.48-1.44 1.71-1.98.53-4.01.56-6.08.1-2.53-.56-2.94-3.43-3.1-5.61-.16-2.19-.26-4.3-.28-6.32-.02-1.57-.99-3.01-1.37-4.61-.19-1.22-.88-4.62-.57-7.54.09-.68-.02-.72-.33-.1-1.35 2.72-.55.53-1.56 3.5-.41 1.21-.64 2.29-.18 3.57.88 2.49.4 5.45-3.19 4.68-.19-.04-.32.03-.39.22-.78 2.29-2.72 3.16-4.02.61-1.14-2.23-.53-4.23.57-6.39.25-.5.41-1.01.47-1.54.88-8.12 3.47-11.59 8.7-17.89.11-.13.1-.25-.04-.35-5.81-4.32-11.14-11.15-13.16-17.99-1.63-5.53-1.56-11.06.22-16.59 2.43-7.55 8.26-13.83 15.75-16.8 13.38-5.3 28.14-.28 35.32 12.24 2.21 3.86 3.38 8.06 3.51 12.61.08 2.71-.2 5.2-.85 7.47-2.13 7.53-7.54 14.2-13.73 19.11-.06.04-.07.12-.02.18 3.15 3.82 3.84 4.38 5.93 9 1.52 3.38 2.21 5.21 2.57 8.38.09.81.29 1.5.58 2.07 1.36 2.7 1.84 5.59-.51 7.7-1.24 1.12-2.65-.93-3.04-2.01-.08-.21-.22-.27-.42-.19-1.29.52-2.79-.03-3.22-1.19-.33-.89-.23-2.16.04-3.09.27-.9.53-1.74.27-2.7-.93-3.42-.28-1.79-1.82-4.87-.24-.49-.33-.46-.26.08.69 3.38-.75 8.09-1.36 10.33-.33.89-.62 2.12-.61 3.07.05 2.83-.14 5.37-.54 7.63-.34 1.87-1.3 2.97-2.9 3.32-1.57.34-6.58.74-7.18-1.1-.36-1.09-.65-3.33-.86-6.7 0-.02 0-.02-.02-.02zm.41-25.59c1.04.15 1.99.06 2.86-.27 1.53-.59 2.95-1.27 4.26-2.05 5.66-3.37 10.36-7.87 14.09-13.48 1.37-2.07 2.46-4.16 3.25-6.3 2.29-6.18 2.26-12.12-.56-18.2-2.89-6.23-7.42-10.76-13.61-13.58-1.84-.77-3.33-1.27-4.45-1.5-8.04-1.65-15.31-.21-21.83 4.32-6.42 4.47-10.53 11.85-10.76 19.77-.35 11.86 7.83 22.32 17.49 28.22 2.68 1.63 5.16 2.7 7.45 3.2.72.16 1.32.11 1.79-.13zm-.07 23.57c1.32.05 2.46-.25 3.43-.89.66-.44.81-.31.46.4-.33.65-1.79 1.35-2.57 1.61-.2.07-.34.25-.35.46-.13 2.19.11 4.41.74 6.64.12.44.52.59.92.67 1.85.36 3.62.28 5.31-.25 1.44-.45 1.72-3.42 1.76-4.65.06-1.81.14-3.64.26-5.52.01-.16-.06-.25-.22-.26-.12-.01-.25 0-.37.04-.17.05-.27 0-.29-.18s.03-.34.15-.47c.7-.75 1.24-1.59 1.53-2.58 2.12-7.05 1.68-9.72-.51-16.77-.03-.09.02-.18.11-.21.12-.04.23 0 .31.1 3.8 4.8 4.16 6.04 5.73 11.9.16.59.11 1.32-.07 1.9-.29.93-1.01 3.07-.25 3.89.07.08.17.12.28.13l1.64.1c.14 0 .25-.1.26-.23 0-.08-.03-.16-.09-.21l-.58-.47c-.06-.05-.07-.14-.02-.2.02-.03.05-.05.08-.05 2.45-.49 1.55 3.35 3.13 3.62.39.07.76-.18.85-.57.53-2.3.21-4.2-.97-5.68-.11-.14-.17-.3-.2-.47-.39-3.15-.95-4.87-2.2-8.02-2-5.05-2.58-6.27-6.31-10.2-.25-.26-.52-.28-.81-.07-2.71 2-5.71 3.44-9 4.33-5.15.64-10.23-1.63-14.41-4.5-.11-.08-.21-.07-.3.03-1.53 1.57-2.87 3.28-4 5.12-2.84 4.6-2.93 4.49-4.25 9.72-.29 1.12-.5 2.38-.64 3.76-.02.17-.09.33-.2.46-1.24 1.37-1.55 3.25-.94 5.66.09.35.45.57.8.48.04-.01.08-.02.12-.04 1.53-.72.58-3.51 2.85-3.56.29 0 .34.1.15.31l-.54.59c-.04.05-.04.13.01.17.01.01.03.02.05.03.68.18 1.33.14 1.96-.13.12-.05.21-.14.26-.26.64-1.61-.7-3.3-.55-4.88.03-.34.09-.67.18-1 1.37-5.06 1.4-4.77 4.06-9.17.42-.69.88-1.34 1.4-1.98.71-.87.9-.77.59.31-1.97 6.64-2.31 8.79-.6 15.05.37 1.37 1.07 2.6 2.1 3.7.12.13.12.33 0 .45-.04.04-.08.06-.14.08-.21.06-.42.04-.63-.07-.08-.04-.17 0-.21.07-.01.02-.02.05-.02.08.08 2.2.19 4.29.31 6.3.06.96.26 1.95.6 2.95.18.54.52.89 1.02 1.06 1.63.53 4.36.85 6.04.05.11-.05.19-.14.22-.26.67-2.39.94-4.64.8-6.75-.02-.31-.23-.58-.52-.67-.96-.32-1.7-.81-2.23-1.49-.48-.62-.36-.76.34-.43.2.09.41.2.62.32.99.57 2.19.79 3.6.65z" fill="#010202"/><path d="m79.24 139.15c-.44.88-1.04 1.87-1.79 2.96-3.4 4.97-7.95 8.67-13.65 11.08-.48.24-1.07.29-1.79.13-2.29-.5-4.78-1.57-7.45-3.2-9.66-5.9-17.85-16.37-17.49-28.22.24-7.92 4.34-15.3 10.76-19.77 6.51-4.53 13.79-5.97 21.83-4.32 1.12.23 2.6.73 4.45 1.5-.06.19-.02.3.12.33.11.02.16.08.15.19-.03.3.08.56.32.78 5.13 4.69 7.93 11.17 8.54 18.03.09.98.15 1.98.18 3.01" fill="#8fc89a"/><path d="m83.4 121.65c-.09-1.58-.17-2.85-.18-3.01-.37-5.59-8-17.53-8.54-18.03-.24-.22-.35-.48-.32-.78.01-.11-.04-.17-.15-.19-.14-.03-.18-.13-.12-.33 6.19 2.82 10.73 7.35 13.61 13.58 2.82 6.09 2.85 12.02.56 18.2-.79 2.13-1.87 4.23-3.25 6.3-3.74 5.61-8.43 10.11-14.09 13.48-1.31.78-2.73 1.46-4.26 2.05-.87.33-1.82.42-2.86.27 5.7-2.41 10.25-6.11 13.65-11.08.75-1.1 1.35-2.09 1.79-2.96 2.51-1.39 4.38-3.49 5.61-6.29.56-1.27.9-2.02.97-3.08.17-2.68-1.58-4.74-2.28-5.48-.03-.64-.08-1.56-.14-2.66z" fill="#63916d"/><path d="m83.67 122.06c1.76.76 2.36 2.74 2.56 3.39.5 1.62.21 3.01-.14 4.75-.32 1.59-.81 2.73-.97 3.08-1.23 2.8-3.1 4.9-5.61 6.29-3.98 1.83-7.58 1.35-9.75.24-.51-.26-1.66-1.32-1.74-1.47-1.99-3.62 2.6-9.45 3.45-10.52 0 0 2.19-2.78 5.03-4.37.96-.54 1.94-.92 1.94-.92.49-.19 1.15-.44 1.92-.58.83-.16 2.12-.4 3.31.12z" fill="#010202"/><path d="m65.85 154.58c.42.3.85.6 1.29.88 1.84 1.17 3.11 3.12 3.8 5.24 1.09 3.37 1.32 6.75.7 10.15-.93 5.07-3.57 3.73-7.91 5.92-1.41.14-2.61-.07-3.6-.65-.21-.12-.41-.22-.62-.32-.71-.33-.82-.18-.34.43.53.68 1.27 1.18 2.23 1.49.29.1.5.36.52.67.14 2.11-.13 4.36-.8 6.75-.03.12-.11.21-.22.26-1.69.8-4.41.47-6.04-.05-.5-.16-.84-.52-1.02-1.06-.34-1-.54-1.98-.6-2.95-.12-2-.23-4.1-.31-6.3 0-.09.07-.16.15-.17.03 0 .05 0 .08.02.21.1.42.12.63.07.17-.05.27-.23.22-.4-.01-.05-.04-.1-.08-.14-1.03-1.1-1.73-2.33-2.1-3.7-1.71-6.26-1.37-8.41.6-15.05.32-1.08.12-1.18-.59-.31-.52.63-.98 1.29-1.4 1.98-2.66 4.4-2.69 4.11-4.06 9.17-.09.33-.15.66-.18 1-.15 1.58 1.19 3.27.55 4.88-.05.12-.14.21-.26.26-.62.26-1.28.3-1.96.13-.07-.02-.1-.08-.09-.15 0-.02.01-.04.03-.05l.54-.59c.19-.21.15-.32-.15-.31-2.26.05-1.31 2.84-2.85 3.56-.33.15-.72.01-.88-.32-.02-.04-.03-.08-.04-.12-.61-2.4-.3-4.29.94-5.66.11-.13.19-.29.2-.46.14-1.38.35-2.64.64-3.76 1.32-5.23 1.42-5.12 4.25-9.72 1.13-1.84 2.47-3.54 4-5.12.09-.1.19-.11.3-.03 4.17 2.88 9.26 5.14 14.41 4.5z" fill="#8fc89a"/><path d="m63.73 176.77c4.34-2.19 6.97-.85 7.91-5.92.62-3.4.39-6.79-.7-10.15-.68-2.11-1.95-4.06-3.8-5.24-.45-.28-.88-.58-1.29-.88 3.29-.89 6.29-2.33 9-4.33.29-.21.56-.19.81.07 3.73 3.93 4.31 5.15 6.31 10.2 1.25 3.16 1.81 4.87 2.2 8.02.02.17.09.33.2.47 1.18 1.48 1.5 3.38.97 5.68-.09.38-.46.63-.85.57-1.59-.26-.68-4.11-3.13-3.62-.08.02-.13.09-.11.17 0 .03.03.06.05.08l.58.47c.11.08.13.24.04.35-.05.06-.13.1-.21.09l-1.64-.1c-.11 0-.2-.05-.28-.13-.76-.82-.04-2.96.25-3.89.18-.58.23-1.31.07-1.9-1.57-5.85-1.93-7.09-5.73-11.9-.08-.1-.18-.14-.31-.1-.09.03-.13.12-.11.21 2.19 7.05 2.64 9.72.51 16.77-.3.99-.83 1.84-1.53 2.58-.12.13-.17.29-.15.47.03.18.12.24.29.18.12-.04.25-.05.37-.04.16.01.23.1.22.26-.11 1.87-.2 3.71-.26 5.52-.04 1.24-.32 4.2-1.76 4.65-1.69.53-3.46.61-5.31.25-.41-.08-.8-.23-.92-.67-.63-2.23-.87-4.45-.74-6.64.01-.21.15-.39.35-.46.78-.25 2.25-.96 2.57-1.61.36-.71.21-.84-.46-.4-.96.64-2.11.94-3.43.89z" fill="#63916d"/><circle cx="80.48" cy="127.46" fill="#fdfdfd" r="2.94"/><circle cx="76.28" cy="130.42" fill="#fdfdfd" r="1.26"/><path d="m43.57 122.06c-1.76.76-2.36 2.74-2.56 3.39-.5 1.62-.21 3.01.14 4.75.32 1.59.81 2.73.97 3.08 1.23 2.8 3.1 4.9 5.61 6.29 3.98 1.83 7.58 1.35 9.75.24.51-.26 1.66-1.32 1.74-1.47 1.99-3.62-2.6-9.45-3.45-10.52 0 0-2.19-2.78-5.03-4.37-.96-.54-1.94-.92-1.94-.92-.49-.19-1.15-.44-1.92-.58-.83-.16-2.12-.4-3.31.12z" fill="#010202"/><circle cx="46.77" cy="127.46" fill="#fdfdfd" r="2.94"/><circle cx="50.97" cy="130.42" fill="#fdfdfd" r="1.26"/><g fill="#010101"><path d="m108.56 172.05c-1.5-1.48-3.75-2.59-6.75-3.34l-.25-.06-2.23-.55-2.09-.51c-1.54-.35-2.65-.88-3.31-1.59s-.99-1.57-.99-2.58c0-1.37.58-2.43 1.75-3.18s2.75-1.13 4.73-1.13c.67 0 1.32.04 1.93.11.31.03.61.08.9.13.84.15 1.62.38 2.34.69 1.46.62 2.58 1.19 3.38 1.72.49-.22.87-.55 1.16-.99s.43-.95.43-1.52c0-1.19-.95-2.24-2.85-3.15-.9-.43-1.94-.76-3.11-.98-.18-.04-.37-.07-.56-.1-.22-.03-.44-.07-.66-.09-.01 0-.03 0-.04 0-.96-.12-2-.18-3.11-.18-.99 0-1.91.06-2.77.18-.16.02-.31.05-.47.07-.65.11-1.26.26-1.83.44-1.43.46-2.64 1.09-3.61 1.89-.59.48-1.09 1.01-1.49 1.6-.08.11-.15.22-.22.33-.17.27-.32.56-.45.85-.03.08-.07.16-.1.24-.04.1-.08.2-.11.29-.32.9-.48 1.82-.48 2.78 0 2.12.62 3.85 1.85 5.2 1.24 1.35 3.2 2.37 5.89 3.08l2.88.76 2.61.69s0 0 0 0c3.04.75 4.56 2.38 4.56 4.9 0 3.09-2.3 4.63-6.89 4.63-.07 0-.13 0-.2 0-.83 0-1.63-.08-2.38-.2-1.02-.17-1.97-.44-2.85-.82-1.59-.68-2.98-1.47-4.17-2.35-.57.35-1 .77-1.29 1.26-.09.15-.17.31-.23.46-.04.1-.07.19-.1.29-.07.25-.11.51-.11.77 0 .17.02.35.07.52.04.16.1.33.18.49t0 0c.14.27.33.54.58.81.55.6 1.32 1.13 2.32 1.59.25.12.51.22.78.33.26.1.53.19.82.28.61.19 1.28.36 2.01.51.78.16 1.6.27 2.46.34.12 0 .25.02.37.03.58.04 1.18.06 1.8.06 3.93 0 6.93-.8 9-2.38 2.07-1.59 3.11-3.8 3.11-6.62 0-2.52-.75-4.51-2.25-5.99z"/><path d="m159.72 157.29c-2.12-1.7-4.96-2.55-8.54-2.55-.24 0-.48 0-.72.01-1.92.07-3.64.41-5.18 1.01-1.72.68-3.16 1.53-4.3 2.55-.88-1.1-2.16-1.97-3.84-2.61s-3.6-.96-5.76-.96c-1.85 0-3.7.28-5.53.83s-3.34 1.2-4.53 1.95c-.93.62-1.58 1.22-1.95 1.82s-.56 1.34-.56 2.22v22.57c0 1.59.95 2.38 2.85 2.38.53 0 1.01-.06 1.46-.17.44-.11.77-.21.99-.3v-24.76c.88-.57 1.95-1.08 3.21-1.52s2.59-.66 4-.66c2.12 0 3.8.51 5.03 1.52 1.23 1.02 1.85 2.6 1.85 4.77v18.73c0 1.59.95 2.38 2.85 2.38.49 0 .96-.06 1.42-.17s.8-.21 1.03-.3v-21.05c0-1.01-.13-1.96-.4-2.85 2.17-1.95 4.62-2.97 7.36-3.04h.32c2.07 0 3.73.51 4.96 1.52 1.23 1.02 1.85 2.6 1.85 4.77v18.73c0 1.59.95 2.38 2.85 2.38.49 0 .96-.06 1.42-.17s.81-.21 1.03-.3v-20.92c0-3.53-1.06-6.15-3.18-7.84z"/><path d="m192.82 157.32c-2.25-1.72-5.3-2.58-9.14-2.58-1.81 0-3.49.17-5.03.5s-2.91.81-4.1 1.42c-.66.35-1.15.73-1.46 1.13s-.46.9-.46 1.52c0 .49.14.93.43 1.32.29.4.61.75.96 1.06 1.28-.66 2.74-1.26 4.37-1.79s3.38-.79 5.23-.79c2.25 0 4.04.51 5.36 1.52 1.32 1.02 1.99 2.63 1.99 4.83v1.85l-9.4.93c-3.44.35-6.11 1.27-8.01 2.75s-2.85 3.67-2.85 6.59c0 3.09 1.14 5.45 3.41 7.08s5.48 2.45 9.63 2.45c2.25 0 4.25-.23 5.99-.69s3.14-1 4.2-1.62c.75-.44 1.31-.92 1.69-1.42.37-.51.56-1.25.56-2.22v-15.69c0-3.71-1.13-6.42-3.38-8.14zm-1.86 23.76c-.53.35-1.4.72-2.61 1.09-1.21.38-2.75.56-4.6.56-2.6 0-4.55-.45-5.83-1.36-1.28-.9-1.92-2.19-1.92-3.87 0-1.59.55-2.79 1.65-3.61s2.8-1.33 5.1-1.55l8.21-.86z"/><path d="m219.62 155.8c-2.47 0-4.69.28-6.65.83s-3.52 1.2-4.67 1.95c-.88.57-1.51 1.16-1.89 1.75-.37.6-.56 1.4-.56 2.42v22.44c0 1.59.95 2.38 2.85 2.38.53 0 1.01-.06 1.46-.17.44-.11.77-.21.99-.3v-24.76c1.02-.57 2.29-1.07 3.84-1.49 1.54-.42 3.33-.63 5.36-.63.71 0 1.41.04 2.12.13s1.28.18 1.72.26c.22-.26.4-.58.53-.96s.2-.78.2-1.22c0-1.77-1.77-2.65-5.3-2.65z"/><path d="m247.76 183.4c-.22-.4-.46-.73-.73-.99-.62.35-1.39.66-2.32.93s-1.77.4-2.52.4c-1.81 0-3.21-.36-4.2-1.09s-1.49-1.97-1.49-3.74v-17.21h9.47c1.32 0 1.99-.75 1.99-2.25 0-.44-.07-.85-.2-1.22s-.26-.67-.4-.89h-10.86v-7.61c0-1.59-.93-2.38-2.78-2.38-.53 0-1.03.06-1.49.17s-.81.21-1.03.3v31.44c0 3.18.96 5.45 2.88 6.82s4.42 2.05 7.51 2.05c2.03 0 3.62-.31 4.77-.93s1.72-1.41 1.72-2.38c0-.53-.11-.99-.33-1.39z"/></g></svg>